<?xml version="1.0" standalone="no"?><!DOCTYPE svg PUBLIC "-//W3C//DTD SVG 1.1//EN" "http://www.w3.org/Graphics/SVG/1.1/DTD/svg11.dtd"><svg t="1687335415909" class="icon" viewBox="0 0 1024 1024" version="1.1" xmlns="http://www.w3.org/2000/svg" p-id="32128" xmlns:xlink="http://www.w3.org/1999/xlink" width="200" height="200"><path d="M114.688 249.856l94.208 0c8.192 40.96 45.056 73.728 94.208 73.728 45.056 0 81.92-32.768 94.208-73.728l512 0c12.288 0 20.48-8.192 20.48-20.48 0-12.288-8.192-20.48-20.48-20.48L397.312 208.896c-8.192-40.96-45.056-73.728-94.208-73.728-45.056 0-81.92 32.768-94.208 73.728L114.688 208.896c-12.288 0-20.48 8.192-20.48 20.48C98.304 241.664 106.496 249.856 114.688 249.856zM303.104 172.032c32.768 0 57.344 24.576 57.344 57.344C360.448 262.144 335.872 286.72 303.104 286.72 274.432 286.72 249.856 262.144 249.856 229.376 249.856 196.608 274.432 172.032 303.104 172.032z" p-id="32129" fill="#000000"></path><path d="M909.312 774.144l-360.448 0c-8.192-40.96-45.056-73.728-94.208-73.728s-81.92 32.768-94.208 73.728l-245.76 0c-12.288 0-20.48 8.192-20.48 20.48 0 12.288 8.192 20.48 20.48 20.48l245.76 0c8.192 40.96 45.056 73.728 94.208 73.728s81.92-32.768 94.208-73.728l360.448 0c12.288 0 20.48-8.192 20.48-20.48C925.696 782.336 917.504 774.144 909.312 774.144zM454.656 851.968c-32.768 0-57.344-24.576-57.344-57.344 0-32.768 24.576-57.344 57.344-57.344 32.768 0 57.344 24.576 57.344 57.344C512 827.392 487.424 851.968 454.656 851.968z" p-id="32130" fill="#000000"></path><path d="M909.312 491.52l-57.344 0c-8.192-45.056-45.056-73.728-94.208-73.728-45.056 0-81.92 32.768-94.208 73.728L114.688 491.52c-12.288 0-20.48 8.192-20.48 20.48 0 12.288 8.192 20.48 20.48 20.48l548.864 0c8.192 40.96 45.056 73.728 94.208 73.728 45.056 0 81.92-32.768 94.208-73.728l57.344 0c12.288 0 20.48-8.192 20.48-20.48C925.696 499.712 917.504 491.52 909.312 491.52zM757.76 569.344c-32.768 0-57.344-24.576-57.344-57.344 0-32.768 24.576-57.344 57.344-57.344 32.768 0 57.344 24.576 57.344 57.344C815.104 544.768 786.432 569.344 757.76 569.344z" p-id="32131" fill="#000000"></path></svg>