<?xml version="1.0" standalone="no"?><!DOCTYPE svg PUBLIC "-//W3C//DTD SVG 1.1//EN" "http://www.w3.org/Graphics/SVG/1.1/DTD/svg11.dtd"><svg t="1687323865426" class="icon" viewBox="0 0 1024 1024" version="1.1" xmlns="http://www.w3.org/2000/svg" p-id="14353" xmlns:xlink="http://www.w3.org/1999/xlink" width="200" height="200"><path d="M133.248 719.488l16.736-143.36 8.384-81.76 20.928-181.536c6.688-56.32 40.832-97.28 80.576-96.64h215.872l-28.864 43.904 50.112 82.944-65.92 5.536 96.48 179.808-59.584 74.976 39.936 174.944-11.616 74.944H212.8c-23.584 0-45.952-14.816-61.28-40.544-15.296-25.728-21.984-59.776-18.304-93.216z" fill="#2c2c2c" p-id="14354"></path><path d="M510.272 643.776l75.744-96.32-67.936-126.24 75.296-6.304-88.448-145.312 35.328-53.408h223.744c39.744-0.64 73.92 40.32 80.576 96.64l23.424 210.24 10.816 95.168 11.84 100.16c3.904 33.6-2.688 68-18.016 93.984-15.36 25.952-37.856 40.96-61.568 40.896h-280.064l10.88-70.624-31.616-138.88z" fill="#2c2c2c" p-id="14355"></path></svg>