<?xml version="1.0" standalone="no"?><!DOCTYPE svg PUBLIC "-//W3C//DTD SVG 1.1//EN" "http://www.w3.org/Graphics/SVG/1.1/DTD/svg11.dtd"><svg t="1687335320732" class="icon" viewBox="0 0 1024 1024" version="1.1" xmlns="http://www.w3.org/2000/svg" p-id="29469" data-spm-anchor-id="a313x.7781069.0.i28" xmlns:xlink="http://www.w3.org/1999/xlink" width="200" height="200"><path d="M512 82.757818a62.743273 62.743273 0 0 1 62.650182 62.650182c0 34.536727-28.113455 62.650182-62.650182 62.650182s-62.650182-28.113455-62.650182-62.650182A62.72 62.72 0 0 1 512 82.757818m0-34.909091a97.559273 97.559273 0 1 0 0 195.118546 97.559273 97.559273 0 0 0 0-195.118546zM318.533818 404.386909a17.384727 17.384727 0 0 1-15.034182-8.587636l-72.331636-122.763637a17.454545 17.454545 0 0 1 30.068364-17.733818l62.976 106.868364 118.388363-79.080727a17.454545 17.454545 0 0 1 19.386182 29.02109l-133.748364 89.344a17.594182 17.594182 0 0 1-9.704727 2.932364zM705.466182 404.386909a17.524364 17.524364 0 0 1-9.704727-2.932364l-133.748364-89.344a17.454545 17.454545 0 1 1 19.409454-29.02109l118.388364 79.080727 62.952727-106.868364a17.477818 17.477818 0 0 1 30.091637 17.733818l-72.331637 122.763637a17.454545 17.454545 0 0 1-15.057454 8.587636z" fill="#000000" p-id="29470" data-spm-anchor-id="a313x.7781069.0.i30" class="selected"></path><path d="M598.760727 328.890182v256.093091h-173.521454V328.890182h173.521454m9.146182-34.909091h-191.813818c-14.219636 0-25.762909 11.543273-25.762909 25.762909v274.385455c0 14.219636 11.543273 25.762909 25.762909 25.762909h191.813818c14.219636 0 25.762909-11.543273 25.762909-25.762909v-274.385455c0-14.242909-11.543273-25.762909-25.762909-25.762909z" fill="#000000" p-id="29471" data-spm-anchor-id="a313x.7781069.0.i27" class="selected"></path><path d="M307.572364 976.151273h-0.139637a17.454545 17.454545 0 0 1-17.314909-17.594182l2.187637-282.810182a17.454545 17.454545 0 0 1 7.191272-13.986909l100.840728-73.425455a17.454545 17.454545 0 1 1 20.549818 28.229819l-93.719273 68.258909-2.141091 274.013091a17.477818 17.477818 0 0 1-17.454545 17.314909zM716.427636 976.151273a17.454545 17.454545 0 0 1-17.454545-17.314909l-2.141091-274.013091-93.719273-68.258909a17.454545 17.454545 0 1 1 20.549818-28.229819l100.840728 73.425455c4.468364 3.258182 7.144727 8.448 7.191272 13.986909l2.21091 282.810182a17.454545 17.454545 0 0 1-17.31491 17.594182h-0.162909z" fill="#000000" p-id="29472" data-spm-anchor-id="a313x.7781069.0.i29" class="selected"></path><path d="M512 302.219636a17.454545 17.454545 0 0 1-17.454545-17.454545V227.304727a17.454545 17.454545 0 0 1 34.90909 0v57.460364a17.454545 17.454545 0 0 1-17.454545 17.454545z" fill="#000000" p-id="29473" data-spm-anchor-id="a313x.7781069.0.i31" class="selected"></path><path d="M64 376.459636a17.454545 17.454545 0 0 1-17.454545-17.454545v-122.926546a17.454545 17.454545 0 0 1 34.90909 0v122.926546a17.454545 17.454545 0 0 1-17.454545 17.454545zM165.236364 445.486545a17.454545 17.454545 0 0 1-17.454546-17.454545V167.074909a17.454545 17.454545 0 0 1 34.909091 0v260.957091a17.454545 17.454545 0 0 1-17.454545 17.454545zM960 376.459636a17.454545 17.454545 0 0 1-17.454545-17.454545v-122.926546a17.454545 17.454545 0 0 1 34.90909 0v122.926546a17.454545 17.454545 0 0 1-17.454545 17.454545zM858.763636 445.486545a17.454545 17.454545 0 0 1-17.454545-17.454545V167.074909a17.454545 17.454545 0 0 1 34.909091 0v260.957091a17.454545 17.454545 0 0 1-17.454546 17.454545z" fill="#000000" p-id="29474" data-spm-anchor-id="a313x.7781069.0.i34" class="selected"></path><path d="M850.152727 314.996364H176.011636a17.454545 17.454545 0 0 1 0-34.909091H850.152727a17.454545 17.454545 0 0 1 0 34.909091z" fill="#000000" p-id="29475" data-spm-anchor-id="a313x.7781069.0.i32" class="selected"></path></svg>